<?xml version="1.0" standalone="no"?>
<!DOCTYPE svg PUBLIC "-//W3C//DTD SVG 20010904//EN"
 "http://www.w3.org/TR/2001/REC-SVG-20010904/DTD/svg10.dtd">
<svg version="1.0" xmlns="http://www.w3.org/2000/svg"
 width="700.000000pt" height="700.000000pt" viewBox="0 0 700.000000 700.000000"
 preserveAspectRatio="xMidYMid meet">
<metadata>
Created by potrace 1.14, written by Peter Selinger 2001-2017
</metadata>
<g transform="translate(0.000000,700.000000) scale(0.100000,-0.100000)"
fill="#000000" stroke="none">
<path d="M3404 6981 c-11 -10 -25 -32 -31 -47 -6 -16 -14 -38 -19 -49 l-7 -20
-4 20 c-11 59 -14 65 -33 65 -14 0 -20 -7 -20 -22 0 -32 -10 -374 -14 -483 -3
-85 -19 -145 -38 -145 -7 0 -9 51 -12 395 0 66 2 144 5 173 6 58 -8 86 -39 80
-35 -7 -43 -47 -37 -178 4 -69 8 -217 10 -330 2 -113 8 -230 13 -260 18 -104
-2 -324 -22 -240 -4 14 -5 63 -4 110 2 47 0 108 -4 135 -4 28 -10 113 -13 190
-2 77 -7 174 -10 215 -3 41 -7 118 -9 170 -3 107 -15 140 -50 140 -33 0 -40
-38 -23 -131 3 -14 8 -75 11 -135 9 -156 17 -274 20 -309 2 -16 6 -57 10 -90
6 -66 14 -166 21 -293 3 -46 7 -88 10 -93 10 -15 14 -165 5 -179 -10 -17 -40
37 -40 73 0 14 -6 58 -14 98 -8 41 -17 108 -20 149 -3 41 -10 90 -15 108 -5
18 -11 72 -12 120 -1 48 -6 101 -11 117 -4 17 -11 71 -14 120 -3 50 -10 124
-15 165 -6 41 -13 91 -15 110 -16 128 -20 140 -49 140 -14 0 -26 -7 -29 -17
-7 -24 2 -193 13 -245 5 -24 12 -72 16 -108 9 -97 25 -213 33 -246 9 -33 5
-74 -8 -74 -9 0 -18 42 -35 170 -2 19 -9 50 -14 68 -5 17 -8 32 -6 32 3 0 1
10 -4 23 -5 12 -12 55 -15 96 -4 40 -11 94 -16 120 -4 25 -11 71 -15 101 -3
30 -8 62 -11 72 -8 26 -33 29 -55 7 -17 -17 -19 -29 -15 -82 3 -34 7 -71 10
-82 3 -11 12 -45 20 -75 9 -30 18 -86 22 -125 3 -38 16 -114 30 -168 13 -53
26 -118 29 -144 2 -25 9 -61 15 -79 7 -19 10 -41 8 -51 -2 -9 -22 33 -45 93
-52 135 -52 135 -54 212 -1 34 -15 110 -30 168 -15 58 -31 129 -34 158 -9 74
-23 123 -41 141 -18 18 -20 18 -45 4 -26 -13 -24 -29 35 -259 50 -199 61 -270
41 -270 -30 0 -55 57 -59 132 -2 40 -6 82 -9 93 -2 11 -8 47 -11 80 -18 163
-21 172 -49 203 -22 24 -59 29 -74 10 -15 -18 -7 -59 34 -178 33 -98 37 -117
34 -163 -3 -55 -65 73 -103 212 -29 110 -44 133 -81 123 -43 -11 -82 -75 -132
-217 -16 -44 -31 -84 -35 -88 -4 -4 -15 22 -25 58 -12 47 -26 72 -47 90 -35
29 -41 30 -62 9 -21 -21 -21 -26 13 -92 17 -31 64 -142 106 -247 42 -104 90
-214 106 -244 31 -58 37 -85 17 -79 -7 2 -40 58 -73 124 -33 65 -70 135 -82
155 -12 19 -31 62 -42 95 -43 129 -54 153 -82 180 -24 23 -33 26 -47 17 -25
-16 -19 -62 17 -129 17 -33 58 -113 90 -179 152 -312 197 -403 219 -437 25
-39 27 -83 3 -83 -20 0 -62 73 -110 192 -51 125 -265 551 -290 577 -15 15 -22
16 -40 7 -26 -14 -27 -45 -3 -91 41 -79 119 -223 181 -335 36 -66 90 -172 119
-235 29 -63 59 -122 66 -130 19 -23 57 -92 53 -96 -12 -13 -155 219 -224 364
-26 53 -77 153 -115 221 -37 68 -68 125 -68 128 0 17 -73 113 -91 118 -47 15
-47 -66 1 -130 34 -45 51 -75 210 -365 62 -113 155 -279 206 -370 52 -91 94
-171 94 -178 0 -28 -23 -8 -58 49 -20 34 -56 91 -80 128 -47 71 -68 109 -103
185 -12 27 -50 98 -85 157 -35 60 -74 128 -87 151 -163 286 -159 280 -196 276
-21 -2 -27 -9 -29 -33 -2 -23 21 -66 103 -195 58 -91 111 -176 118 -190 63
-122 161 -294 235 -413 34 -54 67 -108 73 -120 11 -21 10 -21 -17 3 -38 33
-60 60 -119 146 -27 39 -81 115 -119 169 -37 54 -76 115 -85 135 -9 20 -70
127 -135 237 -116 195 -150 236 -200 245 -24 4 -45 -27 -31 -46 59 -79 224
-341 275 -436 28 -52 60 -104 70 -115 30 -32 129 -179 124 -184 -10 -11 -71
62 -142 169 -41 63 -96 142 -121 175 -80 104 -200 276 -206 295 -5 17 -28 30
-63 36 -10 2 -39 -35 -34 -43 7 -10 0 -33 -7 -29 -15 10 -61 -12 -61 -29 0
-27 27 -70 111 -180 44 -58 76 -105 71 -105 -22 0 -80 50 -125 110 -28 36 -64
78 -80 94 l-30 29 -22 -26 c-25 -32 -27 -33 -82 -6 -24 12 -61 23 -82 26 -32
4 -41 1 -54 -17 -17 -25 -14 -43 26 -130 13 -30 27 -65 31 -78 l7 -22 -35 21
c-19 11 -40 18 -46 14 -15 -9 -12 -37 6 -63 17 -25 13 -27 -34 -10 -30 11 -35
11 -48 -6 -18 -25 -4 -49 45 -77 21 -12 74 -60 117 -107 44 -47 159 -166 257
-265 97 -99 175 -182 173 -185 -3 -2 -44 30 -92 72 -88 77 -126 98 -146 78
-12 -12 18 -59 57 -91 14 -10 55 -46 92 -79 38 -34 92 -78 122 -99 52 -36 113
-103 95 -103 -5 0 -51 34 -103 75 -51 41 -99 75 -105 75 -25 0 -39 -18 -32
-41 9 -35 15 -41 91 -91 85 -56 152 -114 143 -123 -9 -9 -39 8 -90 53 -24 20
-113 84 -197 142 -235 161 -338 240 -436 334 -96 92 -151 130 -203 141 -25 5
-33 3 -38 -10 -11 -27 15 -60 74 -96 31 -19 73 -49 92 -67 19 -19 73 -64 120
-100 46 -37 98 -79 114 -94 17 -16 110 -81 206 -145 97 -64 184 -128 195 -141
l18 -25 -27 7 c-15 4 -60 31 -100 60 -40 30 -145 98 -234 151 -89 53 -168 102
-175 109 -6 7 -40 31 -74 54 -34 23 -87 66 -119 94 -87 82 -124 96 -144 58 -9
-17 -4 -27 40 -70 56 -55 155 -130 282 -214 99 -65 118 -83 96 -91 -20 -8
-158 67 -231 124 -128 101 -143 111 -179 122 -29 9 -41 9 -52 0 -24 -20 -8
-44 56 -85 33 -22 80 -56 105 -77 25 -20 65 -47 89 -60 52 -26 58 -49 14 -49
-17 0 -49 -9 -72 -21 -50 -26 -61 -23 -180 45 -118 67 -132 71 -152 51 -22
-22 -12 -39 45 -69 27 -15 49 -32 49 -38 0 -17 -79 -2 -141 26 -63 30 -96 32
-128 10 -19 -14 -22 -23 -18 -49 8 -52 55 -138 100 -186 78 -83 78 -82 23 -74
l-48 8 4 -29 c2 -23 14 -33 68 -60 36 -17 146 -62 245 -98 99 -37 194 -73 210
-81 l30 -15 -35 4 c-19 2 -53 11 -75 20 -21 9 -84 28 -139 42 -55 14 -148 43
-206 65 -114 41 -151 47 -168 26 -18 -21 11 -53 65 -73 27 -9 87 -32 135 -50
47 -18 108 -36 135 -40 26 -3 86 -19 133 -35 119 -39 313 -87 327 -82 32 12
-3 68 -49 78 -17 4 -45 14 -62 22 -30 14 -30 14 22 8 60 -7 222 -62 222 -76 0
-5 -18 -9 -39 -9 -49 0 -58 -20 -25 -53 16 -16 40 -26 70 -30 47 -5 62 -12 50
-24 -8 -8 -57 2 -276 56 -125 32 -176 48 -515 161 -99 33 -188 60 -197 60 -10
0 -22 -9 -28 -21 -17 -30 10 -55 79 -75 79 -23 343 -113 349 -119 17 -17 -23
-11 -169 24 -90 22 -185 46 -211 54 -41 13 -50 13 -67 0 -12 -8 -21 -23 -21
-33 0 -32 29 -46 160 -75 29 -7 607 -145 730 -175 69 -16 163 -37 209 -44 45
-8 86 -18 90 -22 8 -9 -119 4 -194 21 -11 2 -49 7 -85 10 -36 4 -99 15 -140
26 -41 10 -122 28 -180 39 -58 11 -128 25 -156 31 -28 5 -62 12 -75 14 -49 10
-67 14 -200 48 -155 40 -189 39 -189 -4 0 -18 7 -32 20 -39 19 -10 334 -84
409 -96 18 -3 41 -7 50 -9 137 -30 317 -65 356 -70 128 -17 156 -22 168 -34
11 -11 -20 -30 -43 -26 -8 2 -66 13 -128 25 -83 16 -120 20 -136 12 -17 -7
-31 -5 -61 9 -53 26 -96 36 -180 44 -104 9 -130 14 -240 42 -55 15 -125 28
-157 31 -49 3 -57 1 -63 -17 -10 -34 15 -60 65 -67 25 -3 68 -12 95 -19 28 -8
66 -17 85 -20 19 -3 42 -8 50 -10 8 -2 38 -7 65 -10 28 -3 79 -12 114 -19 35
-7 94 -12 131 -11 54 2 77 -2 116 -22 l49 -24 -95 5 c-52 3 -108 8 -125 10
-71 12 -185 26 -246 31 -36 3 -87 11 -115 18 -27 7 -56 11 -66 9 -19 -4 -30
-26 -22 -46 8 -20 84 -44 159 -51 119 -11 255 -32 263 -39 8 -8 -50 -27 -83
-27 -41 -1 -144 9 -240 22 -44 6 -114 9 -155 7 -72 -3 -75 -4 -75 -28 0 -34
34 -48 124 -54 102 -6 107 -18 19 -46 -107 -33 -271 -99 -287 -115 -12 -11
-12 -19 -1 -44 7 -17 19 -32 26 -32 8 -1 17 -2 22 -3 4 -1 25 -5 47 -9 69 -14
76 -17 70 -36 -11 -34 7 -51 74 -71 78 -25 234 -27 290 -4 29 12 43 12 113 -5
114 -28 114 -34 -2 -33 -84 1 -285 0 -370 -1 l-85 -2 -3 -33 c-3 -26 1 -34 20
-41 26 -10 158 -5 215 7 21 5 54 5 73 0 91 -21 147 -26 289 -27 63 -1 112 -3
109 -6 -8 -8 -102 -24 -149 -25 -24 -1 -89 -1 -144 -1 -55 0 -116 -2 -135 -5
-31 -4 -113 -4 -233 -1 -46 1 -77 -24 -61 -51 16 -25 85 -30 354 -26 225 3
249 -3 90 -21 -36 -4 -136 -9 -222 -10 -87 -2 -169 -5 -182 -9 -32 -8 -44 -43
-22 -65 14 -13 41 -16 164 -16 130 1 262 8 333 20 13 2 51 6 84 10 33 3 71 7
85 10 54 9 254 14 234 6 -12 -5 -36 -12 -55 -15 -19 -3 -45 -8 -59 -10 -14 -3
-59 -7 -100 -11 -41 -3 -94 -7 -117 -10 -24 -3 -62 -7 -85 -10 -325 -36 -315
-34 -345 -46 -15 -5 -49 -9 -77 -8 -28 1 -61 -3 -72 -9 -28 -15 -36 -57 -14
-77 26 -24 131 -19 221 10 43 13 116 27 165 30 49 4 107 8 129 10 22 3 67 7
100 10 33 3 71 8 85 10 14 2 45 7 70 10 25 3 68 10 95 16 70 13 109 18 195 24
57 4 71 3 57 -5 -10 -7 -29 -13 -42 -16 -50 -8 -71 -13 -135 -27 -36 -9 -94
-19 -130 -22 -36 -4 -74 -9 -85 -11 -11 -2 -38 -6 -60 -9 -22 -3 -50 -7 -63
-10 -13 -2 -58 -7 -100 -11 -42 -3 -79 -7 -82 -9 -3 -2 -57 -6 -120 -10 -209
-12 -249 -23 -250 -67 0 -50 60 -60 180 -28 41 11 107 20 145 20 39 0 88 5
110 11 45 12 74 13 83 4 12 -12 -20 -22 -78 -24 -33 -1 -83 -9 -112 -17 -101
-29 -173 -44 -220 -44 -42 0 -48 -3 -54 -25 -16 -64 50 -70 250 -25 72 16 142
31 156 34 14 2 42 7 64 11 31 6 38 5 34 -6 -6 -21 -124 -57 -261 -80 -217 -36
-228 -38 -244 -51 -20 -16 -15 -56 8 -69 26 -13 63 -8 239 35 77 19 139 30
144 25 5 -5 7 -11 4 -14 -5 -6 -119 -38 -259 -75 -83 -22 -89 -26 -89 -54 0
-51 39 -53 165 -11 39 13 78 27 87 30 14 5 18 2 18 -14 0 -15 -10 -23 -42 -31
-153 -39 -175 -51 -164 -88 4 -11 19 -22 36 -26 38 -7 39 -34 3 -41 -16 -3
-52 -17 -81 -31 -43 -20 -53 -29 -50 -46 5 -35 47 -57 123 -64 39 -4 77 -8 85
-10 8 -1 19 -3 24 -3 5 -1 -3 -12 -18 -26 -31 -29 -32 -36 -6 -60 19 -17 23
-16 117 31 54 26 102 50 107 52 5 3 6 0 2 -6 -6 -11 -26 -22 -127 -73 -71 -36
-84 -51 -69 -78 17 -32 55 -31 115 4 22 12 85 46 140 75 132 69 151 81 280
174 140 101 265 161 265 128 0 -9 -334 -232 -415 -277 -27 -16 -86 -52 -130
-81 -44 -29 -99 -60 -122 -69 -73 -29 -76 -104 -4 -105 14 0 66 30 122 69 54
38 126 86 160 106 33 19 85 55 115 79 29 24 75 52 101 62 46 17 141 79 338
219 65 47 99 64 123 65 40 0 41 -15 1 -35 -17 -9 -83 -51 -147 -94 -64 -43
-164 -109 -222 -146 -58 -38 -161 -105 -230 -150 -69 -44 -164 -105 -212 -134
-49 -29 -88 -58 -88 -66 0 -13 26 -45 37 -45 30 0 323 179 484 296 45 33 69
42 69 27 0 -5 -25 -24 -56 -43 -30 -19 -63 -42 -72 -50 -51 -46 -172 -140
-207 -160 -101 -58 -214 -136 -218 -151 -6 -23 11 -49 32 -49 45 0 213 108
408 261 138 110 248 181 270 177 21 -4 17 -8 -65 -67 -29 -22 -79 -63 -109
-92 -73 -67 -263 -207 -361 -266 -126 -75 -159 -118 -112 -143 16 -8 30 -6 63
8 80 37 360 245 455 339 51 51 99 93 107 93 8 0 15 -2 15 -4 0 -9 -287 -296
-297 -296 -5 0 -49 -33 -96 -73 -47 -39 -100 -83 -118 -97 -26 -21 -31 -30
-26 -52 18 -69 85 -33 280 152 71 68 95 85 103 77 9 -9 -17 -42 -50 -65 -17
-12 -49 -37 -71 -57 -22 -19 -68 -58 -102 -87 -65 -56 -79 -89 -45 -107 20
-11 53 6 106 53 41 37 54 18 21 -30 -15 -22 -49 -86 -76 -144 -58 -122 -57
-144 8 -148 39 -3 79 19 138 74 11 11 67 55 125 98 58 44 131 101 162 128 34
29 59 44 63 37 7 -11 -1 -22 -85 -115 -30 -33 -67 -73 -81 -90 -15 -16 -50
-51 -78 -77 -54 -51 -60 -66 -35 -91 13 -14 19 -14 43 -2 45 24 152 134 232
241 42 55 94 116 115 135 22 20 90 97 151 173 104 128 168 195 178 185 2 -2
-16 -23 -40 -47 -24 -23 -57 -66 -73 -94 -17 -29 -62 -90 -101 -136 -39 -46
-94 -113 -123 -150 -29 -36 -106 -120 -173 -186 -130 -129 -161 -176 -130
-199 35 -25 48 -16 201 159 128 147 233 275 329 400 54 72 125 161 157 198 32
38 58 72 58 77 0 12 211 222 217 217 5 -6 -184 -265 -269 -369 -35 -42 -125
-152 -200 -245 -75 -92 -148 -181 -163 -198 -43 -49 -150 -166 -204 -224 -31
-32 -51 -63 -51 -77 0 -24 24 -54 43 -54 17 0 148 137 204 215 28 39 74 91
101 116 27 25 81 88 119 140 38 52 86 108 105 125 20 17 52 56 71 85 20 30 51
70 69 90 49 54 61 70 88 114 53 88 135 189 138 171 2 -10 -9 -35 -25 -57 -15
-21 -57 -84 -93 -139 -94 -145 -271 -390 -365 -505 -45 -55 -110 -138 -145
-185 -35 -47 -85 -105 -112 -129 -54 -50 -64 -92 -27 -111 26 -14 54 3 103 62
116 143 205 262 294 394 107 159 152 212 152 179 0 -29 -66 -152 -130 -245
-33 -47 -94 -136 -136 -198 -43 -62 -99 -138 -126 -168 -53 -61 -57 -73 -28
-99 18 -16 21 -17 45 -1 14 9 55 62 93 119 37 56 97 143 134 193 36 50 80 116
98 147 18 32 37 54 44 51 10 -4 22 -59 43 -207 4 -32 -5 -58 -68 -185 -40 -81
-92 -177 -116 -215 -37 -55 -43 -72 -38 -97 13 -59 76 -22 117 67 23 53 39 64
27 21 -33 -124 -57 -247 -52 -271 3 -15 16 -36 30 -47 33 -26 77 -10 112 41
80 118 254 319 276 319 19 0 9 -55 -21 -112 -31 -61 -39 -111 -21 -127 25 -20
42 -2 91 100 34 70 50 117 53 157 3 31 19 93 35 137 38 103 86 275 94 334 3
25 17 69 30 96 l24 50 -5 -45 c-3 -24 -17 -84 -30 -131 -14 -48 -28 -105 -31
-126 -3 -21 -17 -64 -30 -96 -14 -32 -27 -78 -29 -102 -2 -23 -10 -56 -18 -71
-8 -16 -24 -65 -35 -109 -11 -44 -29 -111 -39 -150 -11 -38 -18 -77 -18 -85 1
-8 3 -21 3 -27 2 -17 42 -16 64 1 9 7 19 23 21 37 7 33 32 135 83 329 23 91
45 181 48 200 3 19 17 73 32 120 14 47 39 137 56 200 16 63 36 121 43 129 12
12 12 7 0 -37 -7 -29 -12 -60 -10 -70 1 -9 -8 -37 -20 -62 -26 -50 -41 -103
-50 -170 -5 -40 -27 -138 -83 -375 -9 -38 -17 -72 -17 -75 0 -3 -16 -51 -34
-108 -28 -85 -32 -108 -22 -128 13 -29 44 -31 68 -4 21 22 93 326 119 500 9
63 27 158 40 210 13 52 24 114 24 138 0 23 8 59 19 80 10 20 29 74 41 119 12
45 28 87 36 94 19 15 18 9 -12 -101 -25 -93 -40 -161 -50 -230 -3 -19 -16 -89
-30 -154 -14 -66 -27 -133 -29 -150 -2 -17 -7 -49 -10 -71 -9 -72 -17 -99 -41
-147 -25 -49 -30 -75 -39 -197 -3 -41 -7 -77 -10 -79 -8 -8 26 -42 42 -42 28
0 89 133 99 218 3 26 9 65 14 87 5 22 11 60 15 85 3 25 8 56 10 70 3 14 7 45
10 70 3 25 14 88 25 140 28 130 69 337 76 380 4 19 7 40 8 45 2 6 6 33 10 60
12 76 17 90 26 74 5 -7 7 -16 5 -19 -1 -3 -6 -36 -9 -75 -3 -38 -8 -92 -11
-120 -13 -127 -13 -134 3 -140 23 -9 42 22 42 66 0 49 18 98 29 80 5 -7 7 -27
5 -44 -8 -71 -16 -124 -24 -162 -5 -22 -12 -85 -15 -140 -3 -55 -10 -129 -15
-165 -5 -36 -12 -96 -15 -135 -11 -151 -21 -212 -46 -294 -23 -75 -24 -124 -5
-140 21 -18 52 2 65 41 10 32 14 54 26 148 3 25 7 54 9 65 6 34 16 117 21 175
2 30 7 80 9 110 3 30 8 91 12 135 4 44 10 89 14 100 7 18 10 15 25 -20 16 -37
16 -45 1 -110 -9 -38 -19 -122 -22 -185 -3 -63 -7 -128 -9 -145 -7 -65 -17
-151 -20 -175 -17 -122 -17 -135 4 -154 38 -34 51 -4 77 184 3 25 6 99 6 165
0 66 4 128 7 139 7 16 9 15 20 -13 11 -25 11 -46 -1 -118 -19 -118 -18 -331 2
-343 8 -5 18 -6 21 -2 7 7 30 107 28 120 -1 4 -1 23 0 42 2 29 4 32 11 15 5
-11 18 -64 30 -117 30 -136 67 -175 128 -132 33 23 49 61 56 138 11 114 45
149 45 45 -1 -70 8 -85 37 -65 23 17 46 136 33 178 -10 36 1 367 13 374 17 11
19 -2 23 -127 2 -68 7 -151 11 -184 10 -90 11 -154 2 -209 -7 -48 2 -82 26
-98 41 -28 55 19 50 172 -3 135 -12 276 -19 307 -3 12 -8 64 -10 115 -10 172
-14 219 -19 227 -3 5 0 28 7 52 l13 44 12 -75 c6 -41 14 -120 16 -175 3 -55 7
-111 10 -125 10 -56 16 -112 21 -186 10 -142 22 -265 31 -314 1 -8 3 -20 3
-26 2 -21 31 -24 50 -5 16 16 18 31 14 109 -2 57 0 93 7 97 6 4 10 -7 11 -27
1 -91 22 -166 50 -184 6 -3 20 3 32 15 17 17 21 33 21 83 0 72 -10 172 -23
244 -5 27 -12 69 -16 94 -3 25 -8 56 -10 70 -12 78 -26 194 -30 255 -9 133
-16 209 -20 215 -2 3 0 21 4 40 8 35 8 35 18 10 6 -14 14 -56 17 -93 8 -71 9
-79 27 -164 5 -29 10 -55 10 -58 0 -2 4 -19 9 -36 5 -17 12 -61 16 -97 3 -36
7 -73 9 -82 2 -8 6 -49 9 -90 4 -41 9 -86 11 -100 5 -24 7 -39 20 -130 15
-106 36 -133 77 -101 l22 18 -19 119 c-11 66 -20 121 -20 124 -1 3 -5 32 -9
65 -4 33 -17 105 -28 160 -11 55 -22 115 -25 134 -3 19 -11 52 -19 74 -8 22
-14 67 -14 101 -1 33 -7 79 -15 101 -8 22 -15 56 -15 76 0 20 -9 62 -20 94
-26 76 -26 98 0 66 25 -29 47 -107 55 -191 6 -76 19 -120 50 -175 14 -25 25
-65 29 -105 3 -36 10 -81 15 -100 6 -19 12 -57 16 -85 3 -27 9 -75 15 -105 5
-30 12 -86 15 -125 3 -38 9 -90 15 -115 5 -25 11 -56 13 -70 6 -51 31 -64 62
-33 20 20 17 98 -10 256 -9 50 -18 106 -21 122 -2 17 -11 68 -20 114 -8 46
-13 86 -10 88 3 3 12 3 20 0 16 -6 31 -54 41 -132 9 -72 23 -171 35 -240 5
-33 10 -90 10 -126 0 -36 6 -73 13 -82 20 -28 54 -29 76 -2 23 30 20 106 -9
209 -19 71 -26 100 -36 166 -3 19 -7 41 -10 49 -14 42 -14 79 0 84 8 3 18 0
23 -6 19 -26 56 -163 73 -272 16 -106 29 -144 50 -155 15 -8 24 -6 39 9 24 24
25 20 -34 289 -4 15 -1 22 9 22 15 0 33 -46 61 -160 22 -84 29 -93 75 -85 34
6 39 3 84 -47 61 -67 113 -100 137 -88 28 15 36 59 36 178 -1 128 7 147 46
108 32 -32 38 -32 67 -1 12 13 27 22 31 19 35 -21 115 12 136 57 16 33 -2 98
-45 167 -17 26 -44 76 -60 112 -33 75 -132 248 -168 295 -13 18 -24 36 -24 41
0 6 -18 45 -41 88 -29 56 -37 82 -30 89 14 14 27 -3 92 -128 29 -55 67 -122
84 -150 55 -86 185 -345 185 -368 0 -41 56 -117 85 -117 14 0 35 43 35 72 0
22 -226 468 -319 630 -31 53 -72 117 -91 143 -89 118 -109 150 -98 160 6 7 14
3 24 -10 79 -110 110 -156 159 -236 75 -123 101 -169 110 -198 4 -13 27 -53
51 -88 24 -34 66 -108 94 -162 28 -55 69 -120 91 -145 34 -39 44 -44 60 -36
10 6 19 17 19 26 0 19 -40 98 -96 191 -24 40 -49 94 -56 120 -8 30 -28 66 -53
94 -42 48 -123 195 -113 205 19 19 162 -199 300 -456 65 -123 82 -139 119
-120 32 18 23 62 -30 147 -115 185 -192 323 -186 333 11 17 44 -18 75 -80 15
-30 52 -86 80 -125 29 -38 65 -92 80 -120 20 -38 33 -51 53 -53 40 -5 50 30
24 88 -11 25 -24 48 -29 51 -6 4 -8 14 -6 23 2 13 17 4 61 -39 45 -44 64 -56
80 -51 75 19 76 19 129 -14 78 -48 136 -41 124 15 -8 37 -77 220 -87 230 -19
19 -8 25 26 11 32 -14 36 -13 44 2 13 27 5 51 -26 75 -15 12 -44 40 -63 62
-19 22 -65 71 -102 109 -38 38 -68 71 -68 72 0 2 15 0 33 -3 47 -7 64 15 42
56 -8 17 -19 31 -24 31 -5 0 -46 35 -92 78 -46 42 -93 84 -105 92 -22 16 -54
59 -54 73 0 15 37 -12 91 -68 29 -31 74 -70 99 -87 24 -17 62 -50 83 -74 21
-23 68 -67 105 -96 37 -29 92 -76 122 -105 60 -57 74 -63 89 -34 9 15 3 29
-26 69 -20 27 -53 60 -72 73 -20 13 -91 77 -158 141 -68 65 -141 130 -163 144
-48 32 -55 55 -7 25 64 -40 349 -274 420 -345 39 -39 78 -71 85 -70 6 1 16 2
21 3 5 0 11 11 15 24 5 18 -11 38 -93 118 -54 53 -143 130 -199 172 -55 42
-134 110 -174 150 -40 41 -99 93 -131 116 -32 23 -81 67 -110 97 -29 30 -75
68 -103 85 -46 29 -177 159 -168 168 5 5 67 -43 127 -100 29 -27 85 -75 126
-107 221 -172 452 -359 496 -401 28 -26 69 -62 93 -79 24 -17 56 -48 71 -69
38 -53 54 -64 100 -70 33 -5 41 -2 51 17 18 33 5 62 -42 94 -86 59 -498 408
-498 422 0 8 2 14 5 14 3 0 43 -29 90 -65 47 -35 102 -73 123 -84 20 -11 54
-36 75 -55 21 -20 81 -70 134 -111 89 -69 98 -74 117 -61 39 25 31 49 -31 102
-32 27 -63 53 -69 59 -6 5 -47 41 -92 80 -70 59 -98 95 -77 95 14 0 82 -41
105 -62 14 -13 41 -35 60 -48 19 -13 65 -53 102 -87 52 -49 74 -63 98 -63 29
0 35 8 30 40 -3 24 -30 49 -110 102 -78 52 -130 96 -130 110 0 18 40 6 104
-33 135 -82 292 -117 395 -88 52 15 124 79 119 106 -2 11 -31 33 -72 54 -72
37 -116 73 -116 94 0 7 6 25 14 41 10 18 12 33 6 44 -8 16 -278 143 -362 171
-21 7 -50 23 -65 36 l-28 22 25 1 c14 0 40 -4 57 -9 26 -8 37 -6 54 8 38 30
18 48 -93 82 -80 24 -111 39 -138 66 -33 32 -34 33 -8 24 14 -5 55 -15 90 -21
34 -7 116 -32 182 -56 65 -24 152 -53 193 -64 41 -11 89 -26 106 -35 16 -8 38
-15 47 -15 27 0 53 36 46 63 -5 20 -20 29 -83 50 -43 14 -98 28 -123 32 -60 9
-96 20 -215 65 -55 21 -120 41 -145 44 -108 15 -218 73 -157 82 11 1 21 5 24
8 3 3 18 -3 32 -13 15 -11 76 -33 136 -51 61 -17 163 -49 229 -71 115 -38 132
-43 206 -55 98 -17 138 -6 126 34 -7 21 -74 52 -146 67 -19 4 -125 31 -235 60
-199 53 -397 102 -445 111 -91 17 -186 61 -169 78 3 4 49 -9 101 -28 88 -32
383 -101 538 -125 36 -6 103 -22 150 -35 196 -57 237 -59 261 -15 10 20 8 25
-21 49 -29 24 -30 27 -15 40 39 32 41 71 3 91 -10 6 -49 12 -86 15 -107 7
-152 14 -225 35 -37 11 -102 26 -145 34 -42 8 -120 23 -172 34 -52 11 -113 22
-135 25 -70 10 -95 17 -95 27 0 5 16 9 35 9 71 0 383 -50 465 -75 47 -14 108
-28 135 -30 28 -3 92 -11 143 -17 80 -10 95 -10 108 4 8 8 15 23 14 34 -3 60
-2 91 4 109 13 39 -14 56 -125 77 -57 11 -129 22 -159 25 -62 5 -69 8 -52 25
9 9 29 9 85 -1 39 -7 101 -14 137 -17 36 -3 76 -6 90 -8 54 -7 74 24 45 68
-15 22 -14 24 25 51 75 52 101 113 62 148 -10 9 -61 31 -113 48 -52 17 -98 34
-102 38 -11 11 10 26 56 41 37 12 38 13 32 49 -5 28 -2 41 9 51 9 7 16 25 16
41 0 43 -25 47 -195 33 -38 -3 -72 -7 -75 -9 -3 -2 -44 -6 -90 -10 -155 -10
-217 -17 -336 -33 -33 -4 -78 -7 -100 -6 -21 1 -69 3 -106 4 -77 3 -94 18 -20
17 26 0 74 3 107 8 77 10 97 12 170 20 64 7 94 11 135 20 76 16 172 24 313 26
166 3 189 9 200 49 6 21 -11 44 -47 65 -17 9 -16 12 3 34 22 25 25 35 21 61
-5 34 -57 39 -150 15 -31 -8 -77 -17 -101 -20 -24 -3 -75 -12 -114 -20 -38 -8
-95 -17 -126 -19 -31 -3 -123 -17 -204 -31 -173 -31 -187 -32 -325 -40 -58 -4
-112 -8 -120 -11 -9 -2 -8 2 4 11 11 8 31 15 45 16 29 1 26 0 141 28 47 12
107 21 133 21 69 0 199 29 219 48 26 26 8 43 -48 44 -45 2 -152 -10 -164 -17
-3 -2 -27 -6 -55 -10 -27 -3 -66 -9 -85 -11 -19 -3 -51 -7 -70 -9 -30 -3 -153
-26 -200 -37 -8 -1 -15 4 -15 12 0 18 94 57 168 70 29 5 102 11 162 14 123 6
137 8 226 36 35 10 118 31 184 46 183 40 378 94 394 109 20 19 6 62 -22 69
-30 7 -44 4 -141 -33 -44 -17 -104 -35 -134 -42 -30 -6 -84 -22 -119 -35 -35
-13 -76 -24 -91 -24 l-27 0 33 31 c28 26 50 34 150 54 144 30 213 53 311 106
80 43 103 63 95 84 -11 27 -34 23 -131 -19 -54 -24 -131 -54 -171 -67 -63 -20
-74 -21 -83 -9 -6 11 -2 21 19 37 15 13 32 23 38 23 28 0 237 116 278 154 51
47 55 62 26 99 -20 25 -35 30 -143 41 -57 7 -107 26 -107 42 0 8 4 14 9 14 4
0 20 11 34 24 24 22 25 28 16 55 -14 39 -35 40 -102 3 -67 -36 -201 -92 -222
-92 -33 0 0 23 113 77 154 74 211 128 170 161 -20 15 -55 5 -116 -36 -76 -51
-345 -211 -402 -238 -64 -31 -110 -40 -110 -21 0 8 15 20 33 27 17 7 75 43
127 80 52 37 156 107 230 157 74 50 145 101 157 115 21 22 22 26 7 46 -8 12
-23 22 -32 22 -9 0 -111 -70 -227 -155 -278 -204 -437 -293 -465 -260 -15 18
4 34 147 125 129 81 387 267 471 338 42 36 52 51 50 71 -3 22 -9 26 -42 29
-36 3 -43 -1 -105 -65 -37 -37 -120 -106 -185 -153 -65 -47 -137 -99 -160
-117 -22 -18 -83 -58 -134 -90 -51 -32 -116 -73 -143 -90 -28 -18 -56 -33 -61
-33 -20 0 27 42 112 101 47 32 110 81 140 109 30 28 96 82 145 120 221 169
318 252 333 285 12 25 -8 65 -33 65 -7 0 -43 -29 -80 -64 -67 -65 -243 -211
-390 -323 -44 -33 -89 -70 -99 -82 -11 -11 -26 -21 -35 -21 -17 0 76 93 209
209 47 41 144 135 217 210 131 134 147 160 111 183 -30 19 -40 12 -189 -133
-53 -52 -138 -132 -189 -179 -51 -47 -109 -102 -129 -124 -20 -21 -78 -72
-130 -114 -52 -41 -137 -119 -190 -173 -53 -55 -103 -99 -111 -99 -7 0 -11 2
-9 5 2 2 137 141 300 307 163 167 339 352 390 413 52 60 104 119 116 131 44
42 47 104 5 104 -19 0 -112 -95 -215 -220 -87 -106 -236 -252 -248 -244 -14 8
3 34 99 152 99 123 282 386 282 406 0 8 -7 19 -15 26 -26 22 -58 -5 -111 -93
-26 -45 -69 -104 -94 -132 -25 -27 -59 -70 -75 -95 -34 -50 -146 -173 -152
-166 -3 2 12 38 32 79 28 57 51 88 96 127 32 28 59 57 59 64 0 8 27 49 59 93
60 80 121 175 121 187 0 15 -29 4 -43 -17 -8 -12 -33 -43 -56 -67 -23 -25 -54
-66 -69 -92 -15 -27 -30 -48 -34 -48 -21 0 -13 25 26 81 66 97 124 205 130
240 3 24 -1 37 -19 54 -12 13 -29 22 -36 21 -38 -6 -69 -22 -122 -62 -69 -51
-86 -56 -60 -15 72 114 74 120 63 140 -15 30 -45 26 -69 -8 -12 -16 -21 -32
-21 -35 0 -7 -192 -261 -230 -303 -28 -33 -50 -42 -50 -22 0 5 17 36 38 67 21
31 51 80 66 107 16 28 51 85 78 127 65 100 82 147 62 168 -23 24 -40 5 -138
-151 -50 -79 -105 -165 -122 -189 -17 -25 -40 -63 -52 -85 -20 -40 -62 -86
-62 -69 0 9 61 128 135 263 22 40 68 117 103 171 80 128 86 143 62 165 -23 21
-51 16 -65 -10 -5 -11 -40 -72 -76 -135 -36 -63 -90 -158 -119 -210 -29 -52
-76 -131 -105 -175 -29 -44 -67 -106 -85 -138 -17 -31 -36 -55 -41 -52 -11 7
-6 18 59 138 54 102 123 242 181 371 17 37 46 90 65 116 41 57 76 123 76 144
0 20 -37 31 -55 16 -20 -16 -98 -153 -163 -285 -30 -60 -74 -143 -98 -182 -24
-40 -44 -77 -44 -82 0 -5 -7 -14 -15 -21 -22 -18 -20 5 4 44 11 17 29 58 42
91 12 33 25 65 29 70 36 47 200 362 198 379 -2 11 -14 26 -28 33 -23 12 -27
11 -52 -19 -16 -18 -28 -36 -28 -41 0 -15 -102 -188 -108 -183 -5 6 9 39 69
160 23 48 36 83 30 89 -17 17 -46 1 -81 -45 -19 -26 -36 -45 -38 -43 -2 2 10
32 26 68 38 79 41 97 21 110 -37 24 -60 -5 -164 -212 -62 -122 -90 -162 -78
-108 3 12 37 89 76 170 69 146 70 149 51 167 -26 26 -37 16 -74 -60 -42 -89
-117 -222 -135 -240 -41 -41 -1 85 85 268 34 70 37 97 14 106 -38 14 -61 -17
-108 -146 -35 -94 -45 -39 -15 75 6 23 23 67 39 98 41 81 43 120 8 143 -50 32
-73 28 -153 -29 -42 -30 -86 -66 -98 -79 -30 -32 -45 -21 -43 29 1 34 -2 40
-20 43 -16 2 -25 -6 -37 -30 -33 -70 -105 -334 -112 -408 -7 -87 -43 -276 -60
-316 -8 -19 -20 -34 -27 -32 -18 6 -17 48 2 104 10 27 21 70 24 95 4 24 18
103 31 174 14 72 31 170 39 219 8 49 26 110 39 136 34 66 9 119 -41 84 -19
-13 -50 -119 -66 -225 -3 -20 -8 -42 -10 -50 -3 -8 -7 -30 -10 -50 -3 -20 -8
-42 -10 -50 -3 -8 -7 -31 -10 -51 -3 -21 -12 -75 -20 -120 -8 -46 -17 -103
-21 -128 -21 -143 -40 -212 -64 -234 -19 -17 -20 -17 -30 2 -14 27 -9 68 32
222 20 74 41 173 47 220 19 139 50 292 71 345 10 28 23 71 28 97 9 50 1 68
-32 68 -22 0 -39 -38 -72 -163 -27 -101 -28 -108 -49 -252 -8 -55 -21 -118
-30 -140 -16 -39 -16 -38 -12 75 3 63 12 147 20 186 9 39 18 88 22 110 3 21
17 66 30 99 31 75 36 103 23 126 -11 22 -52 25 -66 7 -10 -13 -28 -83 -38
-148 -3 -19 -7 -46 -10 -60 -5 -27 -11 -73 -20 -160 -9 -81 -14 -106 -25 -132
-7 -16 -9 20 -5 127 3 83 7 159 9 170 2 11 7 53 11 93 8 76 -1 102 -34 102
-45 0 -60 -80 -67 -358 -3 -125 -11 -257 -18 -294 -7 -37 -14 -99 -15 -139 -1
-39 -7 -83 -12 -98 -9 -23 -11 -24 -20 -9 -16 28 -17 114 -4 228 7 58 13 186
14 286 2 181 5 244 16 342 7 59 -11 102 -44 102 -31 0 -43 -26 -46 -107 -2
-43 -6 -125 -9 -183 -4 -58 -8 -248 -11 -424 -2 -175 -6 -321 -10 -324 -3 -3
-5 -1 -5 4 0 5 -3 63 -6 129 -9 177 -6 662 4 723 9 49 7 119 -4 150 -2 8 -16
12 -36 10 l-33 -3 -2 -294 c-3 -283 -8 -331 -32 -305 -5 5 -13 52 -16 104 -4
52 -9 103 -11 114 -18 95 -24 271 -14 381 5 45 3 50 -22 64 -22 13 -28 13 -43
1 -13 -11 -16 -25 -12 -62 3 -26 3 -48 1 -48 -3 0 -14 21 -25 48 -11 26 -27
53 -36 60 -24 18 -66 15 -89 -7z m22 -539 c2 -86 2 -186 2 -222 -3 -119 -2
-183 6 -429 8 -283 8 -282 -74 -300 -61 -13 -120 -14 -139 -2 -16 11 -5 96 34
266 32 136 66 314 80 415 3 25 8 56 10 70 2 14 7 49 9 77 3 29 13 85 22 124 9
39 17 76 18 83 2 6 6 28 11 49 4 21 10 35 13 32 3 -3 7 -76 8 -163z m1197 162
c4 -4 -7 -31 -23 -60 -61 -111 -77 -184 -85 -374 -9 -234 -28 -295 -129 -411
-38 -43 -79 -110 -127 -206 -40 -80 -80 -148 -91 -154 -15 -8 -33 -7 -67 2
-70 19 -131 47 -131 60 0 6 13 28 29 48 16 20 47 73 70 117 48 92 80 130 166
194 77 57 172 154 194 199 25 50 29 72 36 186 7 123 12 160 27 205 10 31 62
134 92 183 11 17 28 22 39 11z m-2211 -167 c9 -72 50 -171 111 -267 l47 -75
-55 60 c-30 33 -68 88 -85 122 -30 61 -61 185 -52 211 9 29 27 2 34 -51z
m1115 43 c1 -11 -2 -20 -5 -20 -4 0 -8 9 -9 20 -1 11 2 20 5 20 4 0 8 -9 9
-20z m4 -137 c0 -60 2 -128 5 -153 10 -85 10 -535 0 -584 -6 -31 -12 -43 -15
-33 -12 33 -13 877 -2 877 7 0 11 -37 12 -107z m485 -118 c-7 -65 -45 -257
-52 -265 -8 -7 9 116 27 210 7 30 13 62 14 70 2 8 4 21 4 28 1 6 4 12 7 12 4
0 4 -25 0 -55z m589 -135 c-5 -39 -18 -152 -19 -160 -8 -48 -172 -344 -242
-436 -13 -16 -27 -48 -32 -69 -8 -39 -32 -61 -32 -28 2 51 73 184 165 308 87
116 109 172 131 325 4 30 8 60 9 65 1 6 3 21 4 35 1 19 3 22 11 10 5 -8 7 -30
5 -50z m-978 -22 c11 -18 14 -426 3 -433 -11 -7 -17 30 -25 140 -3 44 -8 110
-11 148 -10 108 8 184 33 145z m-1078 -104 c92 -141 95 -149 97 -299 2 -156 6
-188 40 -272 30 -74 29 -75 -49 -118 -48 -25 -58 -28 -81 -17 -14 6 -36 32
-50 60 -60 118 -70 251 -33 439 19 94 22 132 15 165 -5 24 -11 59 -14 78 -3
19 -7 41 -9 48 -3 6 1 12 8 12 7 0 41 -43 76 -96z m118 14 c47 -78 63 -121 68
-191 3 -34 11 -99 17 -145 8 -60 8 -86 0 -94 -13 -13 -20 23 -27 142 -6 108
-27 189 -70 268 -37 67 -39 72 -27 72 4 0 22 -24 39 -52z m348 -115 c3 -32 8
-67 10 -78 2 -11 7 -47 10 -80 4 -32 9 -64 12 -70 4 -5 -3 -2 -14 8 -15 13
-22 35 -26 90 -4 39 -9 83 -11 97 -10 48 -14 113 -8 129 7 20 18 -16 27 -96z
m1918 45 c-6 -7 -30 -58 -53 -113 -86 -203 -182 -381 -200 -370 -19 12 -10 51
19 85 15 19 41 60 56 90 15 30 38 69 50 85 12 17 36 64 54 105 32 75 72 142
80 135 2 -3 -1 -10 -6 -17z m-3403 -190 c85 -57 274 -184 420 -282 145 -97
281 -187 301 -200 21 -12 58 -39 83 -60 l46 -38 -17 -29 c-18 -30 -67 -68
-116 -90 -31 -14 -13 -30 -442 393 -115 114 -237 228 -271 255 -33 26 -88 70
-122 97 -57 45 -80 75 -49 63 6 -2 82 -52 167 -109z m3110 82 c0 -5 -32 -60
-71 -121 -76 -120 -103 -171 -143 -261 -32 -73 -50 -76 -30 -5 24 82 60 154
113 226 27 36 63 90 81 119 29 48 50 66 50 42z m-1802 -82 c6 -29 13 -69 16
-88 11 -81 16 -128 20 -170 4 -45 4 -45 -9 -15 -13 31 -17 46 -34 150 -23 146
-18 241 7 123z m2109 -25 c-13 -27 -36 -75 -52 -108 -42 -87 -104 -192 -123
-207 -9 -7 -13 -8 -10 -3 3 6 20 41 37 78 34 72 158 287 167 287 2 0 -6 -21
-19 -47z m581 20 c-8 -10 -63 -76 -123 -148 -60 -71 -112 -132 -115 -135 -3
-3 -30 -36 -60 -75 -30 -38 -86 -106 -125 -150 -39 -44 -100 -116 -135 -160
-67 -84 -88 -104 -105 -104 -17 0 -175 156 -175 172 0 34 17 51 124 121 61 41
221 155 354 256 260 194 326 238 356 239 17 1 18 -1 4 -16z m-878 -80 c0 -5
-16 -35 -36 -67 -44 -74 -94 -172 -94 -186 0 -6 -7 -27 -15 -47 -10 -24 -19
-33 -25 -27 -23 23 60 205 145 320 11 15 25 19 25 7z m-2957 -258 c22 -27 1
-9 -49 40 -117 119 -158 169 -65 80 40 -38 91 -92 114 -120z m1939 -30 c36 -4
90 -7 120 -7 29 0 104 -13 166 -29 62 -16 121 -29 130 -29 9 0 61 -22 116 -49
56 -27 112 -52 126 -56 57 -17 126 -60 276 -173 194 -146 287 -241 384 -396
25 -39 61 -94 81 -121 36 -49 119 -207 133 -253 7 -21 5 -22 -18 -16 -35 8
-42 -13 -22 -73 8 -26 29 -118 46 -203 28 -141 48 -195 66 -177 13 13 5 173
-12 230 -3 9 -1 17 5 17 9 0 31 -65 46 -139 16 -77 23 -357 11 -407 -4 -15
-15 -24 -33 -26 -33 -4 -39 -24 -47 -156 -4 -67 -12 -113 -26 -144 -11 -25
-22 -63 -26 -84 -7 -47 -42 -153 -83 -249 -27 -62 -28 -72 -15 -85 14 -13 17
-12 35 9 34 42 21 -2 -24 -77 -62 -104 -82 -124 -113 -116 -20 5 -33 0 -62
-28 -20 -20 -45 -40 -55 -45 -10 -5 -29 -27 -41 -49 -22 -40 -48 -51 -54 -23
-2 9 28 48 70 91 40 40 96 112 124 158 28 47 70 115 92 152 23 37 43 78 46 92
5 28 -17 58 -37 50 -7 -2 -40 -62 -74 -132 -64 -131 -87 -162 -170 -228 -26
-22 -53 -43 -59 -49 -6 -5 -28 -25 -48 -43 -20 -18 -53 -45 -74 -60 -22 -15
-61 -45 -89 -67 -28 -22 -71 -52 -96 -67 -36 -21 -44 -31 -40 -47 9 -36 38
-32 126 21 37 22 71 38 74 34 10 -10 -68 -85 -112 -108 -22 -11 -86 -52 -142
-90 -56 -39 -107 -68 -114 -66 -7 2 8 19 34 37 41 28 46 35 36 52 -6 11 -16
19 -22 16 -7 -2 -38 -12 -71 -21 -32 -10 -69 -28 -83 -42 -23 -24 -24 -26 -9
-43 14 -15 24 -17 54 -10 58 13 50 2 -22 -30 -66 -30 -79 -48 -51 -71 28 -23
139 20 323 127 24 14 45 23 48 20 3 -3 -19 -19 -49 -36 -35 -20 -59 -42 -67
-60 -8 -21 -26 -35 -63 -51 -29 -11 -61 -25 -72 -30 -65 -31 -306 -101 -395
-116 -161 -27 -451 -24 -587 6 -110 25 -333 95 -408 128 -156 70 -377 211
-470 300 -27 26 -79 81 -115 122 -36 41 -78 88 -93 105 -32 33 -169 250 -209
330 -49 96 -117 284 -138 381 -12 55 -25 113 -28 129 -9 38 -8 392 0 505 28
373 244 811 541 1099 72 70 325 239 442 296 122 59 375 142 455 149 36 3 85 9
110 12 164 20 214 22 322 9z m-1895 -160 c35 -43 36 -52 4 -35 -24 12 -101
106 -101 122 0 14 60 -39 97 -87z m205 -58 c51 -51 115 -110 141 -131 57 -47
73 -71 52 -80 -11 -4 -63 42 -160 141 -80 81 -145 150 -145 155 0 21 27 1 112
-85z m3388 53 c0 -10 -169 -240 -198 -270 -13 -12 -14 -11 -7 10 12 40 26 62
105 168 68 91 100 121 100 92z m-137 -33 c-15 -25 -172 -233 -196 -262 -20
-22 -29 -27 -38 -18 -7 7 -8 17 -3 26 10 15 89 106 167 190 26 29 50 60 53 70
3 9 10 15 15 11 5 -3 6 -11 2 -17z m117 -142 c-20 -52 -41 -85 -86 -132 -25
-26 -61 -76 -81 -110 -38 -69 -61 -85 -37 -27 20 48 57 107 108 170 23 29 54
68 69 88 33 42 40 45 27 11z m-3260 -164 c0 -19 -36 -12 -56 12 -11 12 -37 48
-58 80 -21 31 -42 57 -47 57 -5 0 -9 7 -9 16 0 10 34 -18 85 -69 47 -47 85
-91 85 -96z m-142 -6 c31 -38 48 -66 42 -70 -17 -11 -73 38 -97 85 -44 82 -21
76 55 -15z m-719 -1 c30 -8 87 -31 128 -50 68 -31 132 -53 208 -70 17 -4 91
-8 167 -8 l136 -1 39 -31 c52 -42 53 -68 6 -148 -35 -62 -50 -74 -87 -67 -5 1
-39 4 -75 7 -123 9 -177 32 -334 138 -57 39 -121 72 -159 84 -35 11 -87 29
-117 40 -42 15 -82 20 -177 21 -67 1 -132 4 -144 6 -12 2 -58 7 -103 11 -45 3
-93 12 -107 20 -23 12 -21 13 40 14 76 2 86 3 160 18 68 14 99 19 175 28 33 3
62 8 63 9 8 8 132 -7 181 -21z m5241 -158 c0 -8 -69 -36 -88 -36 -9 0 -73 -29
-142 -64 -70 -36 -162 -77 -205 -91 -74 -25 -86 -26 -214 -21 -174 7 -237 -7
-370 -80 -54 -30 -105 -54 -113 -54 -19 0 -38 24 -66 81 -38 80 -29 102 66
158 139 83 294 96 542 45 118 -23 233 -14 357 29 67 23 119 34 166 36 37 1 67
0 67 -3z m-4935 -256 c23 -18 104 -33 168 -32 48 1 66 -1 61 -9 -18 -30 -294
19 -294 52 0 10 48 2 65 -11z m-135 -47 c19 -12 57 -28 85 -38 45 -15 193 -47
222 -48 7 0 10 -4 8 -8 -7 -10 -122 -8 -164 3 -90 23 -231 106 -231 136 0 12
4 12 23 -5 12 -11 38 -29 57 -40z m4880 32 c0 -11 -166 -84 -205 -91 -57 -10
-43 -1 76 50 102 43 129 52 129 41z m-345 -34 c0 -20 -32 -27 -155 -34 -125
-8 -200 -26 -297 -73 -80 -38 -89 -40 -96 -19 -9 23 58 71 131 93 93 29 173
41 271 41 46 0 85 2 87 4 10 10 59 0 59 -12z m-198 -104 c3 -3 -17 -9 -44 -12
-104 -15 -224 -70 -258 -118 -10 -15 -18 -18 -25 -11 -14 14 63 84 126 114 59
29 182 45 201 27z m353 -46 c0 -15 -228 -81 -326 -94 -100 -14 -172 -40 -263
-94 -34 -20 -45 -23 -51 -12 -37 60 159 146 375 165 61 5 207 32 214 40 8 8
51 4 51 -5z m-4575 -17 c19 -12 47 -16 109 -15 47 1 87 -2 90 -7 20 -34 -74
-46 -149 -19 -62 23 -95 39 -95 49 0 13 18 10 45 -8z m5255 -254 c13 -2 -235
-50 -328 -64 -21 -3 -50 -8 -67 -11 -59 -10 -91 -15 -135 -20 -25 -3 -56 -8
-70 -10 -14 -2 -56 -7 -95 -10 -38 -4 -83 -9 -100 -11 -63 -8 -350 -16 -344
-10 9 10 115 24 224 31 50 3 113 10 140 15 28 5 73 12 100 16 28 3 52 8 55 9
9 6 80 14 210 25 69 6 132 13 140 15 27 8 74 16 125 22 28 3 51 6 52 7 1 1 70
-2 93 -4z m-5108 -68 c12 -45 -8 -216 -27 -232 -15 -12 -66 -16 -335 -24 -223
-7 -445 -17 -500 -22 -25 -2 -90 -6 -145 -9 -87 -5 -98 -3 -85 9 8 8 58 24
110 34 53 11 219 56 370 102 151 45 284 84 295 86 11 3 52 11 90 19 39 8 97
23 130 34 75 25 91 25 97 3z m3893 -178 c39 -9 124 -29 190 -45 66 -16 176
-36 245 -44 126 -16 212 -34 395 -80 55 -14 143 -32 195 -40 158 -25 197 -36
186 -54 -6 -8 -196 -6 -306 5 -84 8 -198 9 -280 4 -30 -2 -107 -1 -170 3 -268
15 -478 19 -498 8 -29 -15 -36 0 -39 84 -1 39 -4 91 -7 117 -4 43 -1 58 13 58
3 0 38 -7 76 -16z m1191 -12 c-8 -8 -15 -8 -241 -17 -192 -8 -237 2 -64 13
145 10 313 12 305 4z m-5131 -162 c4 -6 5 -14 2 -16 -15 -15 -311 -21 -512
-11 -66 4 -202 7 -302 8 -107 0 -183 5 -183 10 0 6 156 9 400 8 221 -1 403 0
405 2 10 10 184 9 190 -1z m-38 -117 c5 -14 -21 -17 -117 -12 -30 1 -99 2
-152 1 -110 0 -135 15 -30 20 163 7 295 3 299 -9z m4025 -36 c77 -2 110 -9 97
-21 -7 -7 -228 -11 -235 -4 -3 4 -4 15 0 24 4 11 13 14 29 10 12 -3 61 -7 109
-9z m128 -11 c0 -3 -4 -8 -10 -11 -5 -3 -10 -1 -10 4 0 6 5 11 10 11 6 0 10
-2 10 -4z m394 -10 c121 -8 104 -17 -25 -12 -229 8 -227 8 -194 15 31 7 78 6
219 -3z m-808 -98 c-8 -84 -16 -126 -26 -152 -8 -19 -9 -18 -11 9 -4 66 2 122
19 162 9 24 19 43 21 43 2 0 1 -28 -3 -62z m227 17 c23 -2 94 -6 157 -10 63
-4 126 -9 140 -10 14 -2 37 -4 53 -4 15 -1 27 -5 27 -11 0 -5 -6 -7 -12 -5
-16 5 -279 16 -369 15 -47 0 -70 4 -79 14 -17 22 -4 39 21 25 11 -5 39 -12 62
-14z m862 -109 c44 -4 109 -11 145 -17 36 -6 76 -12 90 -14 43 -6 154 -33 180
-44 19 -9 3 -10 -70 -5 -52 3 -97 7 -100 9 -3 1 -36 6 -75 10 -38 4 -72 8 -75
10 -3 1 -25 6 -50 9 -52 7 -74 11 -150 28 -55 12 -55 12 -20 18 19 3 37 5 40
4 3 -1 41 -5 85 -8z m-762 -21 c-32 -10 -126 -25 -173 -27 -36 -2 -41 19 -8
31 12 4 67 8 122 9 98 0 100 0 59 -13z m-3933 -69 c0 -28 36 -138 61 -188 24
-46 24 -80 2 -100 -35 -30 -148 -67 -223 -72 -135 -10 -174 -18 -289 -58 -109
-38 -189 -80 -241 -130 -14 -13 -54 -48 -90 -78 -36 -30 -104 -94 -151 -144
-47 -49 -89 -84 -92 -79 -7 12 167 241 241 317 102 105 198 166 360 225 43 15
97 40 120 55 61 38 133 117 177 192 47 79 79 108 106 93 10 -5 19 -20 19 -33z
m3970 -178 c93 -45 218 -134 250 -178 37 -53 20 -55 -32 -3 -91 88 -245 174
-356 199 -76 17 -97 27 -88 42 10 17 133 -16 226 -60z m-181 -20 c105 -36 252
-129 348 -222 138 -131 190 -177 231 -203 39 -25 50 -42 36 -56 -11 -11 -62
29 -201 155 -76 70 -156 141 -178 158 -62 49 -164 106 -225 125 -61 20 -83 33
-74 46 7 12 21 11 63 -3z m-41 -168 c53 -25 99 -64 276 -239 239 -235 272
-257 461 -304 143 -35 339 -127 272 -127 -9 0 -49 13 -90 30 -82 33 -154 51
-292 75 -140 24 -259 77 -350 156 -86 74 -153 123 -213 153 -78 40 -199 76
-253 76 -26 0 -50 4 -53 9 -6 9 67 156 91 184 24 26 79 21 151 -13z m-3653
-30 c-9 -14 -53 -36 -121 -59 -94 -32 -152 -43 -259 -46 -98 -3 -164 -19 -213
-51 -13 -8 -28 -14 -35 -11 -16 5 73 56 126 72 23 7 84 13 135 14 103 2 207
25 292 64 59 27 85 33 75 17z m31 -78 c-11 -18 -135 -72 -197 -86 -93 -21
-134 -26 -212 -27 -39 -1 -88 -7 -110 -15 -45 -16 -65 -10 -22 6 43 16 106 29
176 35 35 3 84 8 109 11 25 4 50 7 56 7 6 0 49 17 95 38 85 37 114 46 105 31z
m4200 -243 c64 -43 121 -65 235 -89 114 -24 184 -53 200 -81 13 -24 10 -24
-63 7 -33 14 -104 35 -156 46 -107 22 -178 51 -249 99 -57 38 -150 133 -177
180 -15 25 2 14 74 -50 52 -45 113 -96 136 -112z m-4191 146 c-42 -26 -165
-69 -225 -78 -96 -15 -130 -18 -130 -10 0 5 8 9 18 10 37 3 200 46 277 73 100
35 110 36 60 5z m200 -122 c43 -43 84 -113 78 -131 -4 -10 -33 -45 -64 -80
-32 -34 -81 -92 -109 -130 -28 -37 -82 -101 -119 -142 -73 -80 -186 -222 -265
-333 -39 -54 -51 -65 -62 -56 -8 6 -12 14 -10 18 2 3 39 62 81 131 43 69 103
166 133 215 31 50 89 155 130 235 127 248 157 300 172 300 4 0 20 -12 35 -27z
m3087 -65 c8 -7 35 -40 58 -73 24 -33 47 -62 50 -65 13 -9 82 -122 77 -126 -2
-2 -35 31 -73 73 -38 43 -71 80 -74 83 -29 27 -80 101 -75 110 8 13 18 13 37
-2z m-4027 -106 c-31 -27 -269 -167 -260 -153 8 14 114 83 190 123 71 38 87
45 70 30z m3995 -29 c14 -16 59 -68 100 -118 62 -75 201 -237 220 -255 3 -3
25 -30 50 -60 25 -30 47 -57 50 -60 19 -16 62 -81 57 -86 -9 -9 -88 74 -277
290 -20 23 -56 66 -80 96 -25 30 -53 64 -63 74 -47 53 -106 134 -100 140 11
10 17 7 43 -21z m-9 -137 c66 -68 138 -148 162 -178 23 -29 44 -55 47 -58 3
-3 16 -18 29 -35 12 -16 55 -66 96 -110 41 -45 95 -108 122 -141 26 -32 93
-104 148 -159 55 -55 112 -116 126 -135 28 -38 42 -70 31 -70 -11 0 -55 42
-84 82 -15 20 -65 74 -110 120 -89 89 -298 319 -393 431 -31 38 -110 122 -174
186 -81 82 -120 129 -128 154 -7 22 -7 37 -2 37 5 0 64 -56 130 -124z m-2917
82 c-9 -18 -59 -77 -111 -132 -51 -54 -136 -148 -187 -210 -52 -61 -115 -131
-142 -156 l-48 -45 34 45 c34 44 144 181 186 230 98 114 129 148 262 286 22
23 24 16 6 -18z m2733 -46 c12 -7 26 -19 30 -26 4 -8 26 -34 48 -58 22 -24 74
-81 115 -128 41 -47 96 -107 121 -135 26 -27 84 -95 129 -150 112 -135 149
-173 263 -272 53 -46 97 -88 97 -94 0 -17 -25 -9 -55 19 -50 46 -158 128 -195
149 -63 36 -183 115 -295 195 -60 43 -199 136 -307 208 -109 71 -198 136 -198
144 0 7 18 25 40 40 22 14 47 38 56 52 23 35 81 73 107 70 12 -2 32 -8 44 -14z
m-2638 -9 c-111 -146 -389 -438 -389 -409 0 3 21 28 48 55 59 61 194 217 250
290 48 62 69 81 90 81 12 0 12 -3 1 -17z m387 -222 c86 -42 96 -60 79 -141 -2
-14 -10 -50 -16 -80 -16 -77 -37 -113 -117 -203 -79 -88 -107 -140 -133 -246
-14 -55 -17 -94 -12 -150 3 -42 6 -117 6 -166 0 -81 -3 -95 -26 -130 -14 -22
-33 -59 -41 -83 -9 -23 -23 -53 -32 -65 -16 -22 -16 -22 -11 8 3 17 15 62 27
100 25 84 29 126 17 180 -5 22 -11 51 -13 65 -3 14 -12 54 -20 90 -9 36 -18
106 -21 155 -5 87 -4 93 26 152 17 34 51 93 75 130 86 133 122 226 130 336 4
50 11 77 20 77 1 0 29 -13 62 -29z m179 -253 c-19 -63 -73 -169 -76 -148 -3
26 1 39 37 115 19 40 35 91 36 112 1 54 12 66 16 16 2 -23 -4 -65 -13 -95z
m1422 97 c30 -21 109 -140 129 -195 11 -32 17 -86 18 -190 2 -121 6 -153 23
-190 23 -52 76 -123 144 -195 90 -96 105 -119 172 -265 27 -59 6 -55 -33 7
-51 80 -98 119 -200 166 -169 78 -239 168 -265 342 -23 161 -66 258 -154 353
-17 18 -43 49 -58 68 -26 35 -26 37 -8 50 10 8 26 14 34 15 9 0 39 11 66 24
59 28 102 31 132 10z m-1284 -8 c14 -37 -134 -347 -184 -387 -4 -3 -31 -42
-62 -87 -33 -50 -57 -77 -60 -69 -8 21 31 89 96 169 55 66 117 175 117 204 0
7 13 43 29 80 16 38 32 76 35 86 6 20 22 22 29 4z m1658 -34 c33 -76 79 -215
79 -239 0 -13 -4 -25 -9 -28 -14 -9 -28 16 -34 65 -3 25 -22 80 -41 122 -46
100 -53 127 -32 127 10 0 25 -19 37 -47z m-1561 -10 c0 -4 -11 -43 -25 -88
-22 -74 -65 -139 -81 -123 -3 3 13 41 35 84 22 44 43 91 46 107 6 24 25 39 25
20z m377 -26 c29 -13 32 -29 34 -207 1 -85 6 -191 11 -235 10 -92 16 -770 6
-752 -3 7 -9 30 -12 51 -4 22 -17 76 -31 120 -22 73 -44 172 -60 266 -3 19
-10 51 -15 70 -5 19 -11 56 -14 82 -8 63 -24 167 -31 198 -3 14 -7 34 -9 45
-2 11 -12 49 -21 85 -22 84 -21 80 -42 183 -15 77 -15 89 -3 98 18 12 157 9
187 -4z m357 -40 c16 -11 17 -17 7 -36 -7 -12 -17 -79 -22 -149 -5 -70 -12
-143 -14 -162 -2 -19 -4 -39 -4 -45 -1 -5 -7 -3 -13 3 -9 9 -14 66 -15 195 -1
100 0 188 2 195 6 16 36 15 59 -1z m-221 -452 c-2 -231 -4 -471 -4 -534 0 -90
-2 -112 -12 -102 -9 9 -11 134 -9 543 2 292 6 536 9 541 16 27 20 -60 16 -448z
m95 60 c-2 -219 -7 -348 -14 -355 -7 -7 -11 -1 -12 18 -4 60 -2 618 2 637 2
11 5 34 6 50 0 26 2 27 11 12 7 -11 9 -137 7 -362z m-2048 336 c0 -10 -86
-116 -147 -181 -23 -24 -33 -30 -33 -19 0 12 164 205 178 208 1 1 2 -3 2 -8z
m2949 -97 c16 -54 34 -125 41 -157 14 -69 33 -114 78 -185 42 -64 38 -89 -6
-44 -46 47 -78 101 -96 163 -22 72 -63 339 -51 327 3 -2 18 -49 34 -104z
m-1954 -196 c-25 -52 -45 -103 -45 -112 0 -10 -4 -15 -9 -12 -11 7 6 111 23
145 15 28 67 84 73 78 2 -2 -17 -47 -42 -99z m1928 -39 c33 -97 67 -151 182
-296 92 -116 120 -166 159 -283 30 -92 34 -122 20 -127 -7 -2 -18 24 -28 64
-28 113 -69 183 -209 353 -59 72 -109 145 -134 195 -51 103 -67 194 -31 180 7
-3 26 -42 41 -86z m-608 -244 c9 -60 18 -134 21 -165 3 -30 7 -66 10 -80 6
-37 15 -257 9 -245 -5 11 -42 220 -50 280 -16 130 -23 366 -10 330 2 -5 11
-59 20 -120z"/>
<path d="M4317 4594 c-1 -1 -21 -4 -43 -7 -109 -15 -210 -53 -290 -108 -61
-42 -156 -137 -190 -190 -48 -77 -94 -227 -109 -361 -6 -51 -6 -271 0 -348 17
-235 19 -239 90 -270 31 -13 46 -27 51 -44 12 -48 2 -60 -56 -71 -57 -12 -90
-27 -150 -71 -50 -37 -92 -28 -200 40 -48 31 -92 56 -97 56 -6 0 -18 9 -28 20
-16 18 -17 25 -7 54 25 69 7 114 -41 102 -17 -4 -31 -22 -49 -63 -56 -127 -47
-147 107 -268 122 -96 145 -123 145 -176 0 -85 65 -90 92 -7 12 35 19 43 38
43 19 0 26 -7 30 -30 11 -50 28 -74 50 -68 26 7 38 23 45 62 9 50 23 70 53 76
51 11 91 34 114 65 13 18 52 49 88 70 75 44 99 81 95 147 -3 49 -21 80 -75
129 -59 54 -83 111 -81 197 5 187 23 273 76 357 48 75 88 72 159 -14 53 -65
114 -99 187 -102 52 -3 68 2 127 32 102 54 115 70 136 166 5 24 9 26 34 19 73
-21 92 -52 66 -106 -31 -67 -5 -79 93 -44 70 25 93 49 93 98 0 71 -40 112
-195 198 -131 73 -150 78 -305 77 -115 0 -143 -3 -190 -22 -56 -22 -94 -28
-88 -14 6 14 92 89 118 102 13 7 53 14 89 16 54 3 70 8 103 35 38 30 40 30 59
13 10 -9 19 -23 19 -30 0 -22 18 -26 118 -29 63 -2 110 -8 134 -19 53 -23 95
-21 103 4 20 63 -152 197 -335 260 -52 18 -172 34 -183 24z m14 -510 c17 -18
19 -26 10 -42 -23 -42 -96 -40 -107 3 -7 29 1 44 29 54 32 12 45 9 68 -15z"/>
<path d="M2550 4570 c-127 -26 -258 -83 -335 -144 -22 -18 -54 -41 -72 -51
-39 -23 -59 -61 -42 -81 17 -21 32 -18 117 25 43 22 103 47 134 55 30 9 63 23
74 31 25 19 68 19 107 -2 21 -11 59 -17 112 -18 75 -1 81 -2 92 -26 7 -13 39
-40 73 -59 33 -18 60 -36 60 -40 0 -3 -35 -3 -77 2 -63 6 -106 2 -219 -17 -77
-14 -160 -32 -184 -40 -90 -32 -173 -95 -182 -140 -9 -41 47 -112 92 -117 19
-2 27 3 35 27 14 43 23 53 55 70 41 21 60 10 60 -35 0 -31 8 -47 45 -88 48
-53 91 -75 168 -86 27 -4 63 -16 82 -27 25 -15 49 -19 92 -18 32 1 69 -2 83
-8 40 -15 79 -7 167 37 88 43 123 77 123 119 0 34 -105 188 -147 215 -35 22
-46 53 -15 42 45 -18 126 -75 149 -106 14 -19 41 -49 60 -65 23 -21 35 -42 38
-65 5 -35 30 -63 50 -57 5 2 16 14 23 28 16 31 7 217 -12 239 -8 8 -35 52 -60
97 -52 90 -124 163 -209 212 -55 31 -178 76 -237 86 -19 3 -48 8 -64 11 -61
13 -155 10 -236 -6z m150 -470 c24 -24 24 -30 6 -55 -26 -36 -106 -17 -106 26
0 46 64 65 100 29z m344 -53 c24 -18 16 -41 -37 -98 -48 -53 -91 -84 -106 -75
-8 5 23 88 58 156 7 12 31 24 62 29 3 1 13 -5 23 -12z"/>
<path d="M5035 3678 c-8 -26 -16 -136 -21 -314 -4 -153 -3 -183 10 -193 23
-19 32 -7 44 56 10 58 9 359 -3 420 -6 35 -22 52 -30 31z"/>
<path d="M5133 3548 c-6 -8 -9 -60 -7 -127 3 -98 0 -128 -22 -215 -37 -143
-41 -176 -19 -193 24 -17 45 0 45 36 0 15 7 52 15 83 8 31 17 69 21 85 9 39
12 282 4 312 -7 29 -23 37 -37 19z"/>
<path d="M4882 3133 c-35 -93 -65 -192 -66 -218 -1 -38 31 -46 59 -15 29 32
63 144 61 203 -1 45 -4 52 -22 55 -15 2 -24 -5 -32 -25z"/>
<path d="M5003 3113 c-28 -80 -99 -254 -114 -281 -33 -58 -19 -98 25 -69 30
20 126 241 130 298 4 59 -25 95 -41 52z"/>
<path d="M3333 2726 c-67 -34 -123 -56 -160 -62 -90 -14 -108 -9 -128 37 -36
79 -93 59 -114 -42 -21 -96 -14 -111 50 -123 19 -3 44 -14 55 -24 41 -38 73
-52 164 -71 130 -28 147 -33 237 -79 43 -23 96 -44 118 -48 22 -4 59 -15 81
-25 23 -9 52 -18 65 -19 58 -5 70 0 85 35 8 19 14 38 13 42 -4 24 6 36 54 68
28 19 77 43 107 54 30 11 77 31 104 45 27 14 62 26 78 26 35 0 88 48 88 80 0
31 -60 120 -81 120 -4 0 -27 -21 -51 -46 -43 -46 -43 -46 -100 -42 -42 3 -70
13 -110 38 -137 86 -149 90 -293 82 -27 -2 -75 -1 -105 2 -52 5 -61 2 -157
-48z m130 -202 c118 -20 188 -22 297 -10 60 7 63 6 46 -8 -11 -9 -28 -16 -38
-16 -9 0 -43 -10 -75 -22 -32 -12 -79 -21 -104 -21 -46 0 -229 58 -229 73 0
20 9 20 103 4z"/>
<path d="M4582 2514 c-65 -67 -75 -96 -36 -102 37 -5 153 121 140 153 -11 29
-42 14 -104 -51z"/>
<path d="M3490 2235 c-120 -25 -151 -45 -134 -89 8 -20 39 -20 95 0 54 20 181
27 214 12 12 -5 31 -28 40 -49 32 -69 101 -93 137 -46 58 75 -44 158 -214 173
-40 3 -75 7 -78 9 -3 1 -30 -3 -60 -10z"/>
<path d="M865 5731 c-9 -15 10 -43 82 -116 70 -73 176 -165 261 -228 60 -44
92 -52 92 -21 0 23 -114 144 -215 229 -33 28 -78 69 -101 93 -42 44 -104 67
-119 43z"/>
<path d="M791 5656 c-6 -7 -8 -23 -6 -36 5 -25 17 -38 105 -110 30 -25 60 -49
65 -55 66 -66 105 -85 126 -59 18 22 3 42 -98 133 -51 45 -97 91 -103 101 -9
17 -33 30 -67 36 -7 1 -17 -3 -22 -10z"/>
<path d="M1100 5342 c0 -10 24 -36 58 -60 31 -23 69 -52 84 -63 54 -44 66 9
15 64 -59 62 -157 99 -157 59z"/>
<path d="M519 5134 c-17 -20 -4 -31 129 -112 94 -57 135 -65 140 -25 3 18 -8
30 -52 58 -30 19 -58 35 -62 35 -3 0 -26 14 -51 30 -49 34 -84 38 -104 14z"/>
<path d="M6689 4190 c-25 -10 -65 -21 -90 -24 -24 -3 -57 -8 -74 -11 -16 -4
-65 -13 -108 -20 -88 -14 -102 -23 -93 -59 5 -19 11 -24 29 -20 12 2 60 6 107
9 110 5 287 33 322 51 35 18 45 50 22 75 -21 24 -55 23 -115 -1z"/>
<path d="M181 3914 c-25 -18 -18 -42 16 -55 33 -12 65 5 61 34 -4 28 -49 40
-77 21z"/>
<path d="M6423 2472 c-28 -4 -37 -31 -18 -52 20 -22 264 -130 294 -130 13 0
26 10 33 25 16 35 -8 58 -96 91 -39 14 -87 33 -106 41 -50 22 -82 29 -107 25z"/>
<path d="M5853 1479 c-20 -20 0 -59 59 -111 33 -28 68 -69 79 -90 11 -21 23
-38 28 -38 5 0 16 -3 24 -6 20 -7 47 22 42 47 -5 26 -23 48 -95 118 -49 48
-106 91 -120 91 -4 0 -11 -5 -17 -11z"/>
<path d="M3086 954 c-9 -8 -16 -21 -17 -27 0 -7 -2 -19 -3 -27 -2 -8 -6 -39
-10 -68 -15 -125 -40 -255 -63 -320 -8 -25 -12 -55 -8 -69 3 -13 1 -50 -4 -81
-34 -196 -36 -231 -16 -238 36 -14 56 15 70 106 7 44 10 64 29 175 9 50 18
108 21 130 4 22 8 48 11 57 9 30 13 56 18 125 4 37 9 80 12 95 11 52 12 133 2
146 -14 16 -23 15 -42 -4z"/>
<path d="M2144 888 c-26 -30 -78 -103 -181 -257 -77 -114 -82 -126 -70 -145
21 -30 53 -32 79 -3 13 14 47 68 76 121 29 53 75 131 103 173 33 52 49 85 47
102 -4 34 -29 37 -54 9z"/>
</g>
</svg>
